<svg width="205" height="44" viewBox="0 0 205 44" fill="none" xmlns="http://www.w3.org/2000/svg">
<path d="M70.1289 12.6073C68.5254 11.7791 66.737 11.3496 64.7634 11.3496C62.6974 11.3496 60.8472 11.7791 59.2129 12.6687C57.5786 13.5582 56.2835 14.7853 55.3584 16.3497C54.4025 17.9142 53.9399 19.6934 53.9399 21.7179C53.9399 23.7119 54.4025 25.491 55.3584 27.0555C56.3143 28.6199 57.6711 29.847 59.3979 30.7366C61.1556 31.6261 63.16 32.0863 65.4727 32.0863C67.292 32.0863 68.9263 31.8102 70.3448 31.258C71.7632 30.7059 72.9042 29.8776 73.8601 28.8347L70.7457 25.4604C70.0673 26.1046 69.3272 26.5954 68.4946 26.9328C67.6929 27.2702 66.7369 27.4236 65.6577 27.4236C64.4551 27.4236 63.4066 27.2089 62.5124 26.7794C61.6181 26.35 60.9398 25.7058 60.4464 24.8775C60.1688 24.4174 59.9838 23.9266 59.8605 23.4051H75.1861C75.2169 23.1597 75.2477 22.8836 75.2477 22.6075C75.2786 22.3315 75.2786 22.0554 75.2786 21.8406C75.2786 19.6627 74.816 17.7915 73.8909 16.227C72.9967 14.6319 71.7324 13.4355 70.1289 12.6073ZM62.1424 16.4111C62.9133 15.9816 63.8075 15.7669 64.7943 15.7669C65.8119 15.7669 66.6753 15.9816 67.4462 16.4111C68.1862 16.8405 68.803 17.454 69.2038 18.2209C69.4814 18.7424 69.6664 19.3253 69.7589 19.9388H59.768C59.8605 19.3253 60.0455 18.7424 60.323 18.2209C60.7856 17.4847 61.3715 16.8712 62.1424 16.4111Z" fill="white"/>
<path d="M84.8378 14.2945V11.6564H79.2256V31.8102H85.1153V22.3008C85.1153 20.3682 85.6087 18.9571 86.5954 18.0369C87.5822 17.1166 88.8773 16.6565 90.4808 16.6565C90.6966 16.6565 90.9125 16.6565 91.1283 16.6872C91.3442 16.6872 91.56 16.7178 91.8067 16.7485V11.3496C89.8949 11.3496 88.2914 11.7177 86.9346 12.4539C86.1021 12.9141 85.3928 13.5276 84.8378 14.2945Z" fill="white"/>
<path d="M109.353 13.5276C107.657 12.0858 105.251 11.3496 102.168 11.3496C100.564 11.3496 98.9916 11.5643 97.4189 11.9938C95.8771 12.4233 94.5203 13.0061 93.4411 13.8037L95.5379 17.8835C96.278 17.3007 97.1414 16.8405 98.1898 16.5031C99.2383 16.1657 100.287 16.0123 101.366 16.0123C102.939 16.0123 104.11 16.3497 104.881 17.0553C105.652 17.7608 106.022 18.7424 106.022 19.9694H101.366C99.2999 19.9694 97.6348 20.2148 96.3705 20.7363C95.0754 21.2578 94.1503 21.9634 93.5644 22.8529C92.9785 23.7425 92.6702 24.8162 92.6702 26.0125C92.6702 27.1475 92.9785 28.1905 93.5644 29.1108C94.1811 30.031 95.0445 30.7672 96.1546 31.2887C97.2956 31.8409 98.6524 32.0863 100.225 32.0863C102.014 32.0863 103.463 31.7488 104.604 31.074C105.375 30.6139 105.961 30.0003 106.423 29.2641V31.7795H111.912V20.2762C111.912 17.2393 111.049 14.9693 109.353 13.5276ZM104.357 27.485C103.586 27.9451 102.692 28.1905 101.705 28.1905C100.688 28.1905 99.855 27.9758 99.2691 27.5463C98.6832 27.1168 98.3749 26.5033 98.3749 25.7671C98.3749 25.0923 98.6215 24.5401 99.1458 24.08C99.67 23.6198 100.595 23.4051 101.983 23.4051H106.022V25.4604C105.683 26.3193 105.128 27.0248 104.357 27.485Z" fill="white"/>
<path d="M134.361 12.6076C132.85 11.7487 131.123 11.3192 129.211 11.3192C127.515 11.3192 126.004 11.6874 124.74 12.4542C124.123 12.8223 123.599 13.2518 123.106 13.7733V3.98779H117.216V31.7798H122.828V29.4485C123.321 30.062 123.938 30.5835 124.586 30.9516C125.881 31.6878 127.392 32.0866 129.18 32.0866C131.092 32.0866 132.788 31.6571 134.33 30.7982C135.841 29.9393 137.043 28.743 137.938 27.1785C138.832 25.6447 139.264 23.8042 139.264 21.7183C139.264 19.6016 138.832 17.7611 137.938 16.1967C137.074 14.6629 135.872 13.4665 134.361 12.6076ZM132.665 24.6938C132.202 25.522 131.585 26.1662 130.815 26.6263C130.044 27.0865 129.18 27.3012 128.194 27.3012C127.207 27.3012 126.343 27.0865 125.542 26.6263C124.771 26.1662 124.154 25.522 123.691 24.6938C123.229 23.8656 123.013 22.8533 123.013 21.7183C123.013 20.5526 123.229 19.5403 123.691 18.7121C124.154 17.8838 124.771 17.2396 125.542 16.8102C126.312 16.35 127.207 16.1353 128.194 16.1353C129.18 16.1353 130.044 16.35 130.815 16.8102C131.585 17.2703 132.202 17.8838 132.665 18.7121C133.127 19.5403 133.374 20.5219 133.374 21.7183C133.343 22.8839 133.127 23.8656 132.665 24.6938Z" fill="white"/>
<path d="M151.382 25.338L145.708 11.6567H139.634L148.391 31.9946L148.329 32.1787C147.928 33.0683 147.497 33.7125 147.003 34.1112C146.51 34.51 145.862 34.6941 145.03 34.6941C144.444 34.6941 143.858 34.5714 143.272 34.3567C142.686 34.1419 142.162 33.8045 141.7 33.4057L139.541 37.5776C140.189 38.1604 141.021 38.5899 142.07 38.9273C143.087 39.2647 144.136 39.4181 145.184 39.4181C146.417 39.4181 147.528 39.2341 148.545 38.866C149.563 38.4978 150.488 37.8537 151.32 36.9027C152.153 35.9825 152.893 34.6941 153.571 33.0683L162.73 11.6874H157.087L151.382 25.338Z" fill="white"/>
<path d="M177.562 27.4543C176.791 27.4543 176.174 27.2089 175.712 26.7487C175.249 26.2886 175.033 25.6444 175.033 24.7855V16.5645H180.091V12.0858H175.033V7.17773H169.144V12.0858H166.029V16.5951H169.144V24.8775C169.144 27.2702 169.822 29.0801 171.148 30.3071C172.474 31.5341 174.324 32.117 176.729 32.117C177.624 32.117 178.518 32.0249 179.351 31.8102C180.183 31.5955 180.923 31.2887 181.509 30.8593L179.936 26.7487C179.289 27.2089 178.487 27.4543 177.562 27.4543Z" fill="white"/>
<path d="M202.663 16.1963C201.738 14.6319 200.474 13.4355 198.87 12.6073C197.267 11.7791 195.478 11.3496 193.505 11.3496C191.439 11.3496 189.588 11.7791 187.954 12.6687C186.32 13.5582 185.025 14.7853 184.1 16.3497C183.144 17.9142 182.681 19.6934 182.681 21.7179C182.681 23.7119 183.144 25.491 184.1 27.0555C185.056 28.6199 186.412 29.847 188.139 30.7366C189.897 31.6261 191.901 32.0863 194.214 32.0863C196.033 32.0863 197.668 31.8102 199.086 31.258C200.504 30.7059 201.645 29.8776 202.601 28.8347L199.487 25.4604C198.808 26.1046 198.068 26.5954 197.236 26.9328C196.434 27.2702 195.478 27.4236 194.399 27.4236C193.196 27.4236 192.148 27.2089 191.254 26.7794C190.359 26.35 189.681 25.7058 189.188 24.8775C188.91 24.4174 188.725 23.9266 188.602 23.4051H203.927C203.958 23.1597 203.989 22.8836 203.989 22.6075C204.02 22.3315 204.02 22.0554 204.02 21.8406C204.051 19.632 203.588 17.7608 202.663 16.1963ZM190.884 16.4111C191.654 15.9816 192.549 15.7669 193.535 15.7669C194.553 15.7669 195.417 15.9816 196.187 16.4111C196.927 16.8405 197.544 17.454 197.945 18.2209C198.223 18.7424 198.408 19.3253 198.5 19.9388H188.509C188.602 19.3253 188.787 18.7424 189.064 18.2209C189.527 17.4847 190.113 16.8712 190.884 16.4111Z" fill="white"/>
<path d="M29.9802 43.2221L43.8873 29.4181L43.7948 15.0312L22.7029 35.9827L29.9802 43.2221Z" fill="white"/>
<path d="M33.4954 3.55837L29.9184 0H15.3638L22.6411 7.23943L26.2181 10.7978L16.1655 20.798C15.7646 21.1968 15.7646 21.8717 16.1655 22.3011L21.9319 28.0375C22.3327 28.4362 23.0111 28.4362 23.4428 28.0375L33.4954 18.0372L40.7728 10.7978L33.4954 3.55837Z" fill="white"/>
<path d="M15.3639 0L0.963379 14.3562V28.8043L8.24071 21.5956L22.6412 7.23943L15.3639 0Z" fill="white"/>
<path d="M22.7029 35.9825L8.24071 21.5957L0.963379 28.8045L15.4564 43.222H29.9802L22.7029 35.9825Z" fill="white"/>
</svg>
