<svg width="198" height="36" viewBox="0 0 198 36" fill="none" xmlns="http://www.w3.org/2000/svg">
<path d="M63.8527 8.62C62.2576 7.79176 60.4784 7.3623 58.5152 7.3623C56.4599 7.3623 54.6194 7.79176 52.9936 8.68135C51.3678 9.57094 50.0794 10.798 49.1591 12.3624C48.2082 13.9269 47.748 15.7061 47.748 17.7306C47.748 19.7245 48.2082 21.5037 49.1591 23.0682C50.1101 24.6326 51.4598 25.8597 53.1776 26.7492C54.9261 27.6388 56.92 28.099 59.2207 28.099C61.0306 28.099 62.6564 27.8229 64.0674 27.2707C65.4785 26.7186 66.6135 25.8903 67.5645 24.8474L64.4662 21.4731C63.7914 22.1172 63.0551 22.6081 62.2269 22.9455C61.4293 23.2829 60.4784 23.4363 59.4048 23.4363C58.2084 23.4363 57.1654 23.2216 56.2758 22.7921C55.3863 22.3626 54.7114 21.7185 54.2206 20.8902C53.9445 20.4301 53.7605 19.9393 53.6377 19.4178H68.8835C68.9142 19.1724 68.9449 18.8963 68.9449 18.6202C68.9755 18.3441 68.9755 18.0681 68.9755 17.8533C68.9755 15.6754 68.5154 13.8042 67.5951 12.2397C66.7055 10.6446 65.4478 9.44824 63.8527 8.62ZM55.9077 12.4238C56.6746 11.9943 57.5642 11.7796 58.5458 11.7796C59.5581 11.7796 60.417 11.9943 61.1839 12.4238C61.9202 12.8532 62.5337 13.4667 62.9324 14.2336C63.2085 14.7551 63.3926 15.3379 63.4846 15.9515H53.5457C53.6378 15.3379 53.8218 14.7551 54.0979 14.2336C54.558 13.4974 55.1409 12.8839 55.9077 12.4238Z" fill="#0843BB"/>
<path d="M78.485 10.3072V7.66906H72.9021V27.8229H78.7611V18.3135C78.7611 16.3809 79.2519 14.9698 80.2336 14.0496C81.2152 13.1293 82.5035 12.6692 84.0987 12.6692C84.3134 12.6692 84.5281 12.6692 84.7429 12.6999C84.9576 12.6999 85.1723 12.7305 85.4177 12.7612V7.3623C83.5158 7.3623 81.9207 7.73041 80.571 8.46662C79.7427 8.92676 79.0372 9.54027 78.485 10.3072Z" fill="#0843BB"/>
<path d="M102.872 9.54027C101.185 8.09852 98.7922 7.3623 95.7247 7.3623C94.1295 7.3623 92.5651 7.57703 91.0006 8.00649C89.4669 8.43595 88.1171 9.01878 87.0435 9.81635L89.1294 13.8962C89.8656 13.3134 90.7246 12.8532 91.7675 12.5158C92.8105 12.1784 93.8535 12.025 94.9271 12.025C96.4916 12.025 97.6572 12.3624 98.4241 13.068C99.191 13.7735 99.5591 14.7551 99.5591 15.9821H94.9271C92.8719 15.9821 91.2154 16.2275 89.9577 16.749C88.6693 17.2705 87.749 17.976 87.1662 18.8656C86.5834 19.7552 86.2766 20.8289 86.2766 22.0252C86.2766 23.1602 86.5834 24.2032 87.1662 25.1234C87.7797 26.0437 88.6386 26.7799 89.7429 27.3014C90.8779 27.8536 92.2277 28.099 93.7921 28.099C95.5713 28.099 97.0131 27.7615 98.148 27.0867C98.9149 26.6265 99.4978 26.013 99.9579 25.2768V27.7922H105.418V16.2889C105.418 13.252 104.559 10.982 102.872 9.54027ZM97.9026 23.4976C97.1358 23.9578 96.2462 24.2032 95.2645 24.2032C94.2523 24.2032 93.424 23.9885 92.8412 23.559C92.2583 23.1295 91.9516 22.516 91.9516 21.7798C91.9516 21.105 92.197 20.5528 92.7185 20.0927C93.24 19.6325 94.1602 19.4178 95.5406 19.4178H99.5591V21.4731C99.2217 22.332 98.6695 23.0375 97.9026 23.4976Z" fill="#0843BB"/>
<path d="M127.75 8.61983C126.247 7.76091 124.529 7.33146 122.627 7.33146C120.94 7.33146 119.437 7.69956 118.179 8.46645C117.566 8.83456 117.044 9.26402 116.553 9.7855V0H110.694V27.7921H116.277V25.4607C116.768 26.0742 117.382 26.5957 118.026 26.9638C119.314 27.7 120.817 28.0988 122.596 28.0988C124.498 28.0988 126.185 27.6693 127.719 26.8104C129.222 25.9515 130.419 24.7552 131.308 23.1907C132.198 21.6569 132.627 19.8164 132.627 17.7305C132.627 15.6139 132.198 13.7733 131.308 12.2089C130.449 10.6751 129.253 9.47874 127.75 8.61983ZM126.063 20.706C125.603 21.5342 124.989 22.1784 124.222 22.6386C123.455 23.0987 122.596 23.3134 121.615 23.3134C120.633 23.3134 119.774 23.0987 118.977 22.6386C118.21 22.1784 117.596 21.5342 117.136 20.706C116.676 19.8778 116.461 18.8655 116.461 17.7305C116.461 16.5648 116.676 15.5525 117.136 14.7243C117.596 13.896 118.21 13.2518 118.977 12.8224C119.744 12.3622 120.633 12.1475 121.615 12.1475C122.596 12.1475 123.455 12.3622 124.222 12.8224C124.989 13.2825 125.603 13.896 126.063 14.7243C126.523 15.5525 126.768 16.5341 126.768 17.7305C126.738 18.8961 126.523 19.8778 126.063 20.706Z" fill="#0843BB"/>
<path d="M144.683 21.3502L139.038 7.66895H132.995L141.707 28.0068L141.646 28.1909C141.247 29.0805 140.818 29.7247 140.327 30.1234C139.836 30.5222 139.192 30.7063 138.364 30.7063C137.781 30.7063 137.198 30.5836 136.615 30.3689C136.032 30.1541 135.511 29.8167 135.051 29.4179L132.903 33.5898C133.548 34.1726 134.376 34.6021 135.419 34.9395C136.431 35.2769 137.474 35.4303 138.517 35.4303C139.744 35.4303 140.848 35.2463 141.861 34.8782C142.873 34.5101 143.793 33.8659 144.621 32.9149C145.45 31.9947 146.186 30.7063 146.861 29.0805L155.971 7.69962H150.358L144.683 21.3502Z" fill="#0843BB"/>
<path d="M170.726 23.467C169.959 23.467 169.346 23.2216 168.886 22.7614C168.426 22.3013 168.211 21.6571 168.211 20.7982V12.5772H173.242V8.09852H168.211V3.19043H162.352V8.09852H159.254V12.6078H162.352V20.8902C162.352 23.2829 163.027 25.0928 164.346 26.3198C165.665 27.5468 167.505 28.1297 169.898 28.1297C170.788 28.1297 171.677 28.0376 172.506 27.8229C173.334 27.6082 174.07 27.3014 174.653 26.872L173.088 22.7614C172.444 23.2216 171.647 23.467 170.726 23.467Z" fill="#0843BB"/>
<path d="M195.696 12.209C194.776 10.6446 193.518 9.44824 191.923 8.62C190.328 7.79176 188.549 7.3623 186.586 7.3623C184.53 7.3623 182.69 7.79176 181.064 8.68135C179.438 9.57094 178.15 10.798 177.23 12.3624C176.279 13.9269 175.819 15.7061 175.819 17.7306C175.819 19.7245 176.279 21.5037 177.23 23.0682C178.181 24.6326 179.53 25.8597 181.248 26.7492C182.997 27.6388 184.991 28.099 187.291 28.099C189.101 28.099 190.727 27.8229 192.138 27.2707C193.549 26.7186 194.684 25.8903 195.635 24.8474L192.537 21.4731C191.862 22.1172 191.126 22.6081 190.297 22.9455C189.5 23.2829 188.549 23.4363 187.475 23.4363C186.279 23.4363 185.236 23.2216 184.346 22.7921C183.457 22.3626 182.782 21.7185 182.291 20.8902C182.015 20.4301 181.831 19.9393 181.708 19.4178H196.954C196.985 19.1724 197.015 18.8963 197.015 18.6202C197.046 18.3441 197.046 18.0681 197.046 17.8533C197.077 15.6447 196.617 13.7735 195.696 12.209ZM183.978 12.4238C184.745 11.9943 185.635 11.7796 186.616 11.7796C187.629 11.7796 188.488 11.9943 189.255 12.4238C189.991 12.8532 190.604 13.4667 191.003 14.2336C191.279 14.7551 191.463 15.3379 191.555 15.9515H181.616C181.708 15.3379 181.892 14.7551 182.168 14.2336C182.629 13.4974 183.211 12.8839 183.978 12.4238Z" fill="#0843BB"/>
<path d="M24.4742 35.2342L35.7482 23.9852L35.6732 12.2612L18.5747 29.3347L24.4742 35.2342Z" fill="#0843BB"/>
<path d="M27.3239 2.91195L24.4242 0.012207H12.6252L18.5247 5.91168L21.4245 8.81143L13.2752 16.9607C12.9502 17.2857 12.9502 17.8356 13.2752 18.1856L17.9498 22.8602C18.2747 23.1851 18.8247 23.1851 19.1747 22.8602L27.3239 14.7109L33.2234 8.81143L27.3239 2.91195Z" fill="#09BDF8"/>
<path d="M12.6251 0.012207L0.951172 11.7112V23.4851L6.85065 17.6106L18.5246 5.91168L12.6251 0.012207Z" fill="#097EF6"/>
<path d="M18.5746 29.3348L6.85065 17.6108L0.951172 23.4853L12.7001 35.2343H24.4741L18.5746 29.3348Z" fill="#065BD8"/>
</svg>
