<svg width="11" height="11" viewBox="0 0 11 11" fill="none" xmlns="http://www.w3.org/2000/svg">
<g clip-path="url(#clip0_229_875)">
<path d="M10.9973 10.9998V10.9993H11.0001V6.96507C11.0001 4.99148 10.5752 3.47119 8.26795 3.47119C7.15879 3.47119 6.41445 4.07986 6.11058 4.6569H6.07849V3.65544H3.89087V10.9993H6.16879V7.3629C6.16879 6.40544 6.35029 5.47961 7.536 5.47961C8.70429 5.47961 8.7217 6.57228 8.7217 7.42432V10.9998H10.9973Z" fill="black"/>
<path d="M0.181396 3.65625H2.46206V11.0001H0.181396V3.65625Z" fill="black"/>
<path d="M1.32092 0C0.591708 0 0 0.591708 0 1.32092C0 2.05013 0.591708 2.65421 1.32092 2.65421C2.05013 2.65421 2.64183 2.05013 2.64183 1.32092C2.64138 0.591708 2.04967 0 1.32092 0V0Z" fill="black"/>
</g>
<defs>
<clipPath id="clip0_229_875">
<rect width="11" height="11" fill="white"/>
</clipPath>
</defs>
</svg>
