<svg width="42" height="26" viewBox="0 0 42 26" fill="none" xmlns="http://www.w3.org/2000/svg">
<path d="M0 4C0 1.79086 1.79086 0 4 0H38C40.2091 0 42 1.79086 42 4V17C42 19.2091 40.2091 21 38 21H0V4Z" fill="url(#paint0_linear_9114_106973)"/>
<path d="M3 26L0 21H3V26Z" fill="#12BD7E"/>
<path d="M15.3472 5.75781V15H13.4429L9.72949 8.80469V15H7.8252V5.75781H9.72949L13.4492 11.9595V5.75781H15.3472ZM23.2056 13.5146V15H18.2861V13.5146H23.2056ZM18.9082 5.75781V15H17.0039V5.75781H18.9082ZM22.5645 9.52197V10.9692H18.2861V9.52197H22.5645ZM23.1992 5.75781V7.24951H18.2861V5.75781H23.1992ZM26.5444 13.5337L28.3853 5.75781H29.4136L29.6484 7.05273L27.687 15H26.5825L26.5444 13.5337ZM25.5986 5.75781L27.1221 13.5337L26.9951 15H25.7637L23.7134 5.75781H25.5986ZM31.2671 13.502L32.7715 5.75781H34.6567L32.6128 15H31.3813L31.2671 13.502ZM29.9912 5.75781L31.8447 13.5654L31.7939 15H30.6895L28.7153 7.04639L28.9692 5.75781H29.9912Z" fill="white"/>
<defs>
<linearGradient id="paint0_linear_9114_106973" x1="32.5" y1="21" x2="27.718" y2="-7.55965" gradientUnits="userSpaceOnUse">
<stop offset="0.502254" stop-color="#06AC6F"/>
<stop offset="1" stop-color="#4AE6AC"/>
</linearGradient>
</defs>
</svg>
